# xmcd
#
# Track frame offsets:
#	207
#	21417
#	41757
#	68230
#	89937
#	113902
#	135075
#	160800
#	174605
#	194827
#	214987
#
# Disc length: 3186 seconds
#
# Revision: 1
# Processed by: cddbd v1.5.2PL0 Copyright (c) Steve Scherf et al.
# Submitted via: audiograbber 1.83.01
#
DISCID=a70c700b
DTITLE=Graham Kendrick - Spark to a flame
DYEAR=1993
DGENRE=Worship and Praise
TTITLE0=God is great
TTITLE1=Yes I believe
TTITLE2=Our eyes are on you
TTITLE3=Jesus, Let me meet you in your word
TTITLE4=Jesus restore to us again
TTITLE5=Sing a new song
TTITLE6=Beauty for brokenness
TTITLE7=We shall declare His praise
TTITLE8=Here is bread
TTITLE9=Three part harmony
TTITLE10=Teach me to dance
EXTD=
EXTT0=
EXTT1=
EXTT2=
EXTT3=
EXTT4=
EXTT5=
EXTT6=
EXTT7=
EXTT8=
EXTT9=
EXTT10=
PLAYORDER=
